<?xml version="1.0" encoding="UTF-8" standalone="no"?>
<svg width="128px" height="128px" viewBox="0 0 128 128" version="1.1" xmlns="http://www.w3.org/2000/svg" xmlns:xlink="http://www.w3.org/1999/xlink" xmlns:sketch="http://www.bohemiancoding.com/sketch/ns">
    <!-- Generator: Sketch 3.3.2 (12043) - http://www.bohemiancoding.com/sketch -->
    <title>128</title>
    <desc>Created with Sketch.</desc>
    <defs></defs>
    <g id="Page-1" stroke="none" stroke-width="1" fill="none" fill-rule="evenodd" sketch:type="MSPage">
        <g id="128" sketch:type="MSArtboardGroup" fill="#5B5B5F">
            <path d="M100.85,101.249457 C83.2915625,94.8186957 77.6778125,89.3926087 77.6778125,77.7802174 C77.6778125,70.811087 83.0398438,73.0846739 85.3925,60.3178261 C86.37125,55.018913 91.1060938,60.2330435 92.0117188,48.1416304 C92.0117188,43.3203261 89.4284375,42.1248913 89.4284375,42.1248913 C89.4284375,42.1248913 90.7404687,34.9932609 91.2565625,29.503587 C91.8935938,22.6658696 87.3232813,5 62.9557813,5 C38.5854688,5 34.0123438,22.6658696 34.6521875,29.503587 C35.1696875,34.9932609 36.4817188,42.1248913 36.4817188,42.1248913 C36.4817188,42.1248913 33.8970313,43.3203261 33.8970313,48.1416304 C34.80125,60.2330435 39.5360938,55.018913 40.5134375,60.3178261 C42.8703125,73.0846739 48.2295312,70.811087 48.2295312,77.7802174 C48.2295312,89.3926087 42.6171875,94.8186957 25.05875,101.249457 C7.44546875,107.698587 -4,114.273478 -4,118.759891 L-4,133.83 L129.910156,133.83 L129.910156,118.759891 C129.910156,114.273478 118.464688,107.698587 100.85,101.249457" id="Imported-Layers" sketch:type="MSShapeGroup"></path>
        </g>
    </g>
</svg>